<?xml version="1.0" standalone="no"?>
<!DOCTYPE svg PUBLIC "-//W3C//DTD SVG 20010904//EN"
 "http://www.w3.org/TR/2001/REC-SVG-20010904/DTD/svg10.dtd">
<svg version="1.0" xmlns="http://www.w3.org/2000/svg"
 width="480.000000pt" height="480.000000pt" viewBox="0 0 480.000000 480.000000"
 preserveAspectRatio="xMidYMid meet">
<metadata>
Created by potrace 1.11, written by Peter Selinger 2001-2013
</metadata>
<g transform="translate(0.000000,480.000000) scale(0.100000,-0.100000)"
fill="#000000" stroke="none">
<path d="M2757 4293 c-45 -34 -80 -100 -82 -156 -1 -26 -5 -50 -9 -54 -3 -4
-20 8 -36 25 -23 26 -37 32 -68 32 -25 0 -62 11 -97 30 -48 25 -68 30 -131 30
-71 0 -76 -1 -114 -36 -45 -41 -48 -55 -20 -91 26 -34 25 -49 -5 -69 -24 -15
-30 -15 -127 16 -57 17 -118 38 -136 46 -22 10 -73 14 -162 14 -122 0 -130 -1
-144 -22 -20 -28 -20 -114 -1 -148 8 -14 14 -36 15 -49 0 -14 12 -38 27 -53
23 -24 28 -39 29 -88 2 -33 5 -69 9 -80 9 -30 -19 -36 -54 -11 -24 17 -44 21
-115 21 -79 0 -89 -2 -111 -24 -23 -23 -25 -56 -5 -56 16 0 50 -67 50 -98 0
-17 6 -32 13 -35 7 -2 -7 -23 -36 -53 -44 -44 -47 -52 -42 -83 4 -19 24 -55
46 -81 21 -25 39 -53 39 -61 0 -8 14 -43 30 -78 l30 -63 -2 -302 c-3 -292 -4
-301 -23 -304 -11 -2 -75 -58 -142 -125 l-123 -122 0 -188 c0 -218 4 -231 96
-329 l54 -57 0 -211 0 -212 29 -37 c43 -55 51 -75 51 -129 0 -33 8 -64 24 -93
13 -24 33 -74 45 -111 19 -56 31 -74 79 -117 68 -61 63 -57 148 -149 60 -64
71 -72 104 -72 21 0 51 -7 66 -15 16 -8 39 -15 50 -15 12 0 27 -7 34 -15 8
-10 30 -15 61 -15 56 0 65 -17 24 -44 -14 -9 -25 -25 -25 -35 0 -10 -7 -24
-15 -31 -8 -7 -15 -27 -15 -45 0 -18 -7 -38 -15 -45 -9 -7 -15 -29 -15 -52 0
-22 -7 -53 -17 -68 -15 -26 -15 -29 0 -45 10 -9 17 -21 17 -26 0 -5 44 -9 98
-9 l98 0 17 73 c18 80 23 153 12 179 -4 11 1 28 15 48 35 49 62 38 76 -30 8
-39 14 -47 44 -57 19 -7 83 -12 141 -12 99 -1 109 -3 145 -28 38 -27 42 -28
206 -31 l167 -3 47 -42 48 -42 85 0 c94 -1 111 -6 111 -36 0 -19 13 -19 665
-19 572 0 665 2 665 14 0 8 -4 18 -10 21 -5 3 -10 16 -10 28 0 12 -7 35 -15
51 -8 15 -15 36 -15 45 0 10 -7 26 -15 37 -8 10 -15 38 -15 61 0 29 -7 50 -24
70 -13 15 -38 54 -55 86 -20 37 -65 91 -121 145 -86 83 -90 89 -90 130 0 38 6
49 61 108 63 68 94 123 84 153 -3 10 8 43 25 76 22 42 30 70 30 110 0 36 6 60
19 76 10 13 16 30 14 37 -5 14 13 16 22 2 11 -18 56 -10 81 15 25 25 114 198
114 222 0 7 9 18 20 25 19 12 20 24 20 315 l0 302 -46 21 -47 20 6 46 c2 25
13 55 25 67 11 12 23 32 27 45 3 12 13 22 21 22 12 0 14 45 14 293 l0 293 -42
15 -43 16 0 163 c-1 162 -1 163 -27 184 -14 11 -39 29 -57 38 -22 12 -31 24
-31 42 0 13 -13 53 -30 88 -16 34 -30 70 -30 78 0 8 -13 38 -30 66 -22 39 -43
59 -84 83 -31 17 -64 31 -75 31 -21 0 -59 -33 -108 -94 -18 -22 -37 -37 -45
-34 -7 3 -32 43 -55 90 -23 46 -53 95 -68 108 -14 14 -43 43 -63 64 -20 22
-54 57 -74 77 -21 21 -49 57 -62 81 -15 27 -32 44 -46 46 -33 5 -70 -35 -70
-74 0 -18 -4 -35 -9 -38 -11 -7 -21 17 -21 53 0 18 -13 39 -41 66 -22 22 -49
56 -59 76 -10 20 -36 51 -56 68 -54 48 -97 39 -176 -37 -32 -31 -63 -59 -69
-60 -5 -2 -20 3 -32 11 -12 8 -38 18 -57 22 -19 4 -51 20 -70 35 -19 15 -53
35 -75 44 -22 9 -50 27 -63 39 -20 19 -38 23 -134 27 -103 5 -113 3 -141 -17z
m1153 -478 c0 -8 -4 -15 -10 -15 -5 0 -10 7 -10 15 0 8 5 15 10 15 6 0 10 -7
10 -15z m-299 -407 c19 -6 46 -19 61 -30 16 -11 44 -18 75 -18 26 -1 58 -6 70
-13 63 -35 137 -168 147 -264 3 -28 14 -69 25 -91 23 -45 74 -92 100 -92 10 0
36 -12 57 -27 22 -15 59 -29 84 -32 41 -5 45 -9 48 -36 2 -16 10 -38 18 -49 8
-11 14 -38 14 -59 0 -30 11 -56 45 -107 30 -45 45 -78 45 -100 0 -17 5 -40 11
-52 7 -13 10 -123 9 -323 l-1 -303 -29 -88 c-17 -48 -30 -98 -30 -111 0 -30
-37 -146 -61 -195 -11 -21 -19 -46 -19 -56 0 -33 -39 -143 -77 -222 -21 -41
-40 -95 -43 -119 -4 -39 -10 -48 -42 -65 -41 -24 -111 -75 -171 -126 -23 -19
-67 -52 -98 -73 l-55 -37 -361 0 c-199 0 -369 3 -378 6 -9 4 -27 28 -41 55
-16 33 -32 51 -49 55 -37 9 -87 -24 -110 -73 -21 -45 -38 -51 -69 -28 -16 12
-68 15 -288 15 -202 0 -282 4 -326 15 -31 8 -69 17 -83 19 -15 3 -49 22 -77
41 -47 32 -58 35 -124 35 l-73 0 -57 65 c-32 36 -59 79 -63 97 -4 18 -18 46
-31 61 -15 18 -24 41 -24 62 0 18 -7 46 -15 61 -20 40 -20 248 0 284 19 33 19
81 0 116 -19 37 -19 141 0 174 11 20 14 73 15 246 0 177 3 228 15 250 8 16 15
42 15 57 0 16 8 42 17 58 16 26 16 29 0 47 -22 24 -22 98 -1 152 12 29 15 57
11 95 -5 51 -4 56 25 80 16 14 41 25 55 25 16 0 38 13 59 36 28 29 34 43 34
78 0 27 6 48 16 57 8 7 22 26 31 42 25 48 104 127 127 127 44 0 94 44 149 130
23 35 23 35 112 41 50 3 100 11 112 17 15 8 101 12 281 12 l259 0 56 30 c41
22 71 30 109 31 29 0 69 7 88 14 45 17 352 20 401 3z m-2091 -1163 c0 -9 -7
-32 -15 -52 -10 -24 -15 -71 -15 -152 0 -64 -5 -132 -11 -151 -6 -19 -14 -57
-17 -85 -9 -68 -35 -73 -62 -13 -17 36 -20 66 -20 191 l0 148 58 65 c56 63 82
78 82 49z m3190 -275 c0 -56 5 -81 26 -122 23 -45 25 -56 15 -83 -6 -17 -11
-50 -11 -72 0 -28 -6 -45 -22 -59 -11 -10 -38 -55 -59 -100 -37 -77 -78 -134
-97 -134 -15 0 -22 55 -22 180 0 109 2 121 23 147 46 57 60 88 67 152 8 64 50
161 71 161 5 0 9 -32 9 -70z m-2996 -1191 c-3 -5 -10 -7 -15 -3 -5 3 -7 10 -3
15 3 5 10 7 15 3 5 -3 7 -10 3 -15z"/>
<path d="M3585 2736 c-134 -50 -235 -117 -349 -231 -44 -45 -97 -90 -116 -100
-57 -29 -62 -44 -25 -80 43 -44 71 -35 160 56 120 121 232 194 368 240 109 37
137 71 96 115 -27 29 -54 29 -134 0z"/>
<path d="M2143 2729 c-12 -4 -29 -20 -39 -34 -16 -24 -16 -27 2 -46 10 -12 32
-28 47 -36 16 -8 45 -30 66 -48 34 -31 163 -95 190 -95 13 0 103 -62 152 -106
20 -18 47 -35 58 -39 25 -8 65 14 82 46 9 17 7 25 -12 45 -12 13 -29 24 -36
24 -7 0 -32 17 -56 38 -55 49 -150 112 -168 112 -28 0 -155 68 -194 103 -44
41 -62 47 -92 36z"/>
<path d="M2390 2145 c-19 -11 -65 -14 -181 -15 l-155 0 -29 -30 -29 -30 29
-30 29 -30 163 0 c181 0 204 6 243 61 l22 30 -28 30 c-32 33 -31 33 -64 14z"/>
<path d="M3466 2101 l-30 -31 29 -30 29 -30 198 0 198 0 31 28 31 28 -25 30
-25 29 -204 3 -203 3 -29 -30z"/>
<path d="M3012 1680 c-60 -56 27 -133 96 -84 31 21 29 67 -3 88 -33 22 -67 20
-93 -4z"/>
<path d="M2726 1649 c-31 -25 -33 -48 -6 -77 26 -27 40 -28 74 -1 32 25 33 49
3 77 -29 27 -38 27 -71 1z"/>
<path d="M2455 1410 c-31 -24 -47 -30 -88 -30 -41 0 -55 -5 -84 -30 -18 -16
-39 -30 -46 -30 -7 0 -30 -18 -51 -39 -42 -43 -42 -64 -1 -94 24 -17 25 -17
94 28 l71 45 340 0 c187 1 346 -3 353 -7 6 -4 109 -10 227 -13 l215 -5 80 -43
c108 -57 173 -55 196 5 13 34 0 48 -64 69 -29 9 -88 34 -131 56 -44 21 -86 38
-94 38 -8 0 -34 18 -58 40 l-44 40 -438 0 -439 0 -38 -30z"/>
<path d="M2517 1125 c-21 -20 -25 -30 -18 -44 25 -46 24 -46 405 -46 199 0
374 3 389 8 15 4 33 19 39 33 11 24 9 29 -15 50 l-28 24 -372 0 -372 0 -28
-25z"/>
</g>
</svg>
